<svg xmlns="http://www.w3.org/2000/svg" width="302" height="209" viewBox="0 0 302 209">
<g>
<path d="M 128.99 189.62 C109.86,182.27 89.48,166.09 78.58,149.59 C73.92,142.52 68.70,130.50 67.13,123.19 C66.40,119.77 66.00,104.34 66.00,79.45 L 66.00 41.00 L 74.04 41.00 C94.79,41.00 114.64,33.15 129.22,19.18 L 135.93 12.74 L 143.49 19.79 C156.16,31.63 174.09,39.21 193.24,40.83 L 201.25 41.50 L 194.36 47.62 L 187.47 53.73 L 181.13 52.87 C166.53,50.87 149.89,44.43 141.42,37.49 C139.08,35.57 136.64,34.00 136.00,34.00 C135.36,34.00 132.92,35.57 130.58,37.49 C121.44,44.98 102.71,51.75 86.19,53.53 L 79.88 54.21 L 80.20 86.86 C80.51,118.01 80.63,119.80 82.84,126.00 C89.56,144.87 107.21,163.56 127.28,173.05 C135.03,176.72 136.97,176.72 144.72,173.05 C161.37,165.18 176.76,150.88 184.30,136.28 C190.26,124.73 192.00,117.91 192.00,106.01 L 192.00 96.45 L 199.59 88.97 L 207.19 81.50 L 206.71 100.00 C206.07,124.53 203.47,134.03 193.07,149.75 C183.03,164.92 167.99,177.78 150.40,186.22 C140.97,190.74 134.56,191.76 128.99,189.62 ZM 113.01 121.51 L 90.53 99.02 L 98.50 91.00 L 106.46 82.99 L 121.49 97.99 L 136.52 112.99 L 171.00 78.50 C189.97,59.52 205.82,44.00 206.23,44.00 C207.02,44.00 220.30,57.63 220.78,58.94 C221.17,59.98 138.02,144.00 136.60,144.00 C135.99,144.00 125.37,133.88 113.01,121.51 Z" fill="rgba(1,66,38,1)"/>
</g>
</svg>