 <svg  version="1.0" xmlns="http://www.w3.org/2000/svg"  width="312.000000pt" height="288.000000pt" viewBox="0 0 312.000000 288.000000"  preserveAspectRatio="xMidYMid meet">  <g transform="translate(0.000000,288.000000) scale(0.100000,-0.100000)" fill="#004225" stroke="none"> <path d="M2241 2606 c-52 -29 -50 23 -51 -1199 0 -1225 -2 -1179 49 -1207 21 -10 568 -14 607 -4 11 3 28 18 37 34 16 26 17 121 17 1178 l0 1151 -24 28 -24 28 -294 2 c-231 2 -298 0 -317 -11z"/> <path d="M1348 2055 c-18 -10 -31 -29 -38 -55 -7 -26 -10 -318 -8 -900 l3 -862 28 -24 28 -24 294 0 294 0 28 24 28 24 0 891 0 890 -23 23 c-22 23 -25 23 -315 25 -244 2 -296 0 -319 -12z"/> <path d="M444 1416 l-34 -34 0 -567 0 -567 29 -29 29 -29 292 0 c181 0 299 4 311 10 49 27 49 31 49 617 0 530 -1 549 -20 581 -11 18 -32 37 -46 42 -14 6 -146 10 -301 10 l-275 0 -34 -34z"/> </g> </svg> 