<?xml version="1.0" standalone="no"?>
<!DOCTYPE svg PUBLIC "-//W3C//DTD SVG 20010904//EN"
 "http://www.w3.org/TR/2001/REC-SVG-20010904/DTD/svg10.dtd">
<svg version="1.0" xmlns="http://www.w3.org/2000/svg"
 width="540.000000pt" height="474.000000pt" viewBox="0 0 540.000000 474.000000"
 preserveAspectRatio="xMidYMid meet">
<metadata>
Created by potrace 1.10, written by Peter Selinger 2001-2011
</metadata>
<g transform="translate(0.000000,474.000000) scale(0.100000,-0.100000)"
fill="#000000" stroke="none">
<path d="M2585 4275 c-5 -2 -64 -8 -130 -15 -66 -7 -138 -18 -160 -25 -22 -7
-76 -21 -120 -31 -44 -10 -85 -21 -90 -25 -6 -4 -42 -18 -80 -30 -39 -12 -77
-28 -86 -36 -8 -7 -20 -13 -26 -13 -11 0 -87 -34 -113 -50 -8 -5 -51 -31 -95
-57 -293 -172 -554 -451 -725 -773 -25 -47 -26 -51 -55 -115 -9 -22 -22 -49
-28 -60 -5 -11 -14 -33 -18 -50 -7 -28 -12 -43 -44 -135 -42 -118 -64 -306
-64 -540 0 -257 21 -414 76 -575 14 -38 28 -83 32 -100 7 -27 23 -64 79 -185
9 -19 36 -68 59 -108 24 -41 43 -76 43 -78 0 -5 23 -36 93 -129 42 -56 131
-160 175 -204 127 -129 306 -263 439 -331 26 -13 55 -29 63 -35 15 -12 204
-91 270 -114 70 -24 136 -42 199 -51 35 -6 68 -13 73 -16 18 -12 244 -34 343
-34 99 0 325 22 343 34 5 3 38 10 73 16 81 12 154 33 274 78 78 29 230 101
280 133 17 10 37 22 45 26 26 12 102 65 185 127 158 119 364 347 461 509 41
68 92 159 100 177 4 8 19 42 33 75 32 70 50 118 60 160 4 17 13 39 18 50 6 11
18 56 28 100 9 44 24 107 32 139 11 43 16 118 17 259 l1 198 -37 35 c-33 29
-45 34 -89 34 -60 0 -103 -25 -123 -74 -8 -18 -17 -92 -20 -167 -8 -148 -31
-325 -51 -379 -7 -19 -21 -62 -31 -95 -47 -162 -162 -373 -289 -534 -25 -32
-211 -218 -249 -249 -64 -53 -219 -151 -307 -194 -114 -56 -241 -108 -265
-108 -10 0 -36 -6 -59 -14 -127 -45 -353 -62 -585 -46 -123 9 -163 15 -300 51
-74 19 -178 59 -279 108 -324 154 -612 440 -769 761 -57 117 -85 184 -93 220
-4 19 -12 49 -17 65 -28 81 -36 115 -43 175 -34 301 -33 298 -20 408 7 59 17
139 21 177 4 39 13 86 20 105 27 81 32 96 37 120 4 23 55 156 73 191 4 8 20
40 36 70 15 30 38 68 51 86 12 17 23 34 23 36 0 29 200 268 286 342 31 28 64
57 73 66 29 29 245 165 316 199 39 18 77 37 85 42 18 10 16 9 115 42 71 24
127 37 335 77 30 6 105 13 167 16 114 6 168 0 403 -47 89 -18 261 -71 285 -89
5 -4 45 -22 88 -41 l78 -33 50 24 c100 46 118 155 37 224 -30 27 -82 55 -100
55 -8 0 -19 5 -26 12 -11 11 -65 34 -107 45 -11 2 -33 11 -50 18 -16 8 -61 21
-100 30 -38 9 -92 22 -120 30 -96 28 -460 56 -510 40z"/>
<path d="M4460 3777 c-14 -7 -160 -145 -324 -307 -165 -162 -314 -308 -331
-325 -17 -16 -276 -271 -574 -565 -404 -398 -549 -535 -566 -535 -18 0 -119
95 -392 366 -203 202 -386 378 -407 393 -93 63 -216 2 -216 -107 0 -33 35 -99
65 -122 7 -6 203 -197 435 -425 232 -228 434 -423 449 -432 15 -11 45 -18 72
-18 57 0 62 5 469 406 168 165 440 433 605 595 165 162 390 382 500 490 110
109 244 240 297 292 106 104 126 143 108 206 -23 82 -114 124 -190 88z"/>
</g>
</svg>
