<svg xmlns="http://www.w3.org/2000/svg" xmlns:xlink="http://www.w3.org/1999/xlink" width="1920" zoomAndPan="magnify" viewBox="0 0 1440 809.999993" height="1080" preserveAspectRatio="xMidYMid meet" version="1.0"><defs><clipPath id="b9f4e4829c"><path d="M 694.246094 379.394531 L 745 379.394531 L 745 429.644531 L 694.246094 429.644531 Z M 694.246094 379.394531 " clip-rule="nonzero"/></clipPath></defs><g clip-path="url(#b9f4e4829c)"><path fill="#004225" d="M 719.65625 429.914062 C 705.84375 429.910156 694.597656 418.804688 694.429688 404.980469 C 694.257812 390.859375 705.625 379.394531 719.710938 379.40625 C 733.714844 379.421875 744.953125 390.746094 744.9375 404.792969 C 744.921875 418.644531 733.566406 429.925781 719.65625 429.914062 Z M 719.683594 384.917969 C 708.878906 384.914062 699.96875 393.753906 699.953125 404.507812 C 699.933594 415.519531 708.699219 424.363281 719.660156 424.398438 C 730.492188 424.433594 739.402344 415.570312 739.414062 404.75 C 739.425781 393.789062 730.613281 384.929688 719.683594 384.917969 Z M 734.074219 404.652344 C 734.074219 412.707031 727.65625 419.058594 719.519531 419.058594 C 711.683594 419.058594 705.261719 412.550781 705.265625 404.628906 C 705.273438 396.632812 711.746094 390.246094 719.832031 390.253906 C 727.660156 390.265625 734.078125 396.753906 734.074219 404.652344 Z M 728.460938 404.773438 C 728.460938 399.996094 724.519531 396.007812 719.800781 396.007812 C 714.828125 396.007812 710.921875 399.890625 710.921875 404.828125 C 710.921875 409.65625 714.875 413.535156 719.796875 413.535156 C 724.515625 413.53125 728.460938 409.546875 728.460938 404.773438 Z M 719.671875 400.851562 C 717.578125 400.851562 715.867188 402.5625 715.867188 404.664062 C 715.867188 406.785156 717.578125 408.480469 719.710938 408.46875 C 721.824219 408.457031 723.480469 406.777344 723.480469 404.644531 C 723.480469 402.527344 721.796875 400.851562 719.671875 400.851562 Z M 719.671875 400.851562 " fill-opacity="1" fill-rule="nonzero"/></g></svg>