<svg xmlns="http://www.w3.org/2000/svg" xmlns:xlink="http://www.w3.org/1999/xlink" width="1920" zoomAndPan="magnify" viewBox="0 0 1440 809.999993" height="1080" preserveAspectRatio="xMidYMid meet" version="1.0"><defs><clipPath id="f915170281"><path d="M 75.378906 782.578125 L 80.605469 782.578125 L 80.605469 788.671875 L 75.378906 788.671875 Z M 75.378906 782.578125 " clip-rule="nonzero"/></clipPath><clipPath id="555f92d0f7"><path d="M 0.929688 0.28125 L 7 0.28125 L 7 8 L 0.929688 8 Z M 0.929688 0.28125 " clip-rule="nonzero"/></clipPath><clipPath id="5e206f635b"><rect x="0" width="81" y="0" height="789"/></clipPath></defs><g transform="matrix(1, 0, 0, 1, 679, 10)"><g clip-path="url(#5e206f635b)"><g clip-path="url(#f915170281)"><path fill="#f8f8f9" d="M 80.039062 788.171875 L 80.039062 783.050781 L 80.183594 783.050781 L 80.183594 782.578125 L 75.8125 782.578125 L 75.8125 783.050781 L 75.960938 783.050781 L 75.960938 788.179688 L 75.390625 788.179688 L 75.390625 788.515625 L 77.484375 788.515625 L 77.484375 786.800781 L 78.519531 786.800781 L 78.519531 788.515625 L 80.613281 788.515625 L 80.613281 788.179688 L 80.039062 788.179688 Z M 77.089844 786.304688 L 76.535156 786.304688 L 76.535156 785.753906 L 77.089844 785.753906 Z M 77.089844 785.113281 L 76.535156 785.113281 L 76.535156 784.5625 L 77.089844 784.5625 Z M 77.089844 783.921875 L 76.535156 783.921875 L 76.535156 783.363281 L 77.089844 783.363281 Z M 78.277344 786.304688 L 77.726562 786.304688 L 77.726562 785.753906 L 78.277344 785.753906 C 78.277344 785.753906 78.277344 786.304688 78.277344 786.304688 Z M 78.277344 785.113281 L 77.726562 785.113281 L 77.726562 784.5625 L 78.277344 784.5625 C 78.277344 784.5625 78.277344 785.113281 78.277344 785.113281 Z M 78.277344 783.921875 L 77.726562 783.921875 L 77.726562 783.363281 L 78.277344 783.363281 C 78.277344 783.363281 78.277344 783.921875 78.277344 783.921875 Z M 79.46875 786.304688 L 78.910156 786.304688 L 78.910156 785.753906 L 79.46875 785.753906 Z M 79.46875 785.113281 L 78.910156 785.113281 L 78.910156 784.5625 L 79.46875 784.5625 Z M 79.46875 783.921875 L 78.910156 783.921875 L 78.910156 783.363281 L 79.46875 783.363281 Z M 79.46875 783.921875 " fill-opacity="1" fill-rule="nonzero"/></g><g clip-path="url(#555f92d0f7)"><path fill="#f8f8f9" d="M 3.921875 0.28125 C 2.277344 0.28125 0.9375 1.621094 0.9375 3.265625 C 0.9375 4.019531 1.386719 4.917969 1.941406 5.714844 C 2.738281 6.859375 3.738281 7.804688 3.738281 7.804688 C 3.839844 7.902344 4.003906 7.902344 4.109375 7.804688 C 4.109375 7.804688 5.105469 6.859375 5.902344 5.714844 C 6.460938 4.917969 6.90625 4.019531 6.90625 3.265625 C 6.90625 1.621094 5.570312 0.28125 3.921875 0.28125 Z M 3.921875 1.773438 C 3.101562 1.773438 2.429688 2.441406 2.429688 3.265625 C 2.429688 4.089844 3.101562 4.757812 3.921875 4.757812 C 4.746094 4.757812 5.414062 4.089844 5.414062 3.265625 C 5.414062 2.441406 4.746094 1.773438 3.921875 1.773438 Z M 3.921875 2.316406 C 4.449219 2.316406 4.871094 2.742188 4.871094 3.265625 C 4.871094 3.792969 4.449219 4.214844 3.921875 4.214844 C 3.398438 4.214844 2.972656 3.792969 2.972656 3.265625 C 2.972656 2.742188 3.398438 2.316406 3.921875 2.316406 Z M 3.921875 2.316406 " fill-opacity="1" fill-rule="evenodd"/></g></g></g></svg>