<svg xmlns="http://www.w3.org/2000/svg" xmlns:xlink="http://www.w3.org/1999/xlink" width="1920" zoomAndPan="magnify" viewBox="0 0 1440 809.999993" height="1080" preserveAspectRatio="xMidYMid meet" version="1.0"><defs><clipPath id="3790b2b569"><path d="M 67.84375 785.960938 L 72.472656 785.960938 L 72.472656 791.359375 L 67.84375 791.359375 Z M 67.84375 785.960938 " clip-rule="nonzero"/></clipPath><clipPath id="ff1d33f866"><path d="M 1.628906 0.511719 L 5.097656 0.511719 L 5.097656 2.421875 L 1.628906 2.421875 Z M 1.628906 0.511719 " clip-rule="nonzero"/></clipPath><clipPath id="f8feea7028"><rect x="0" width="73" y="0" height="792"/></clipPath></defs><g transform="matrix(1, 0, 0, 1, 683, 9)"><g clip-path="url(#f8feea7028)"><g clip-path="url(#3790b2b569)"><path fill="#f8f8f9" d="M 71.96875 790.917969 L 71.96875 786.382812 L 72.101562 786.382812 L 72.101562 785.960938 L 68.226562 785.960938 L 68.226562 786.382812 L 68.355469 786.382812 L 68.355469 790.925781 L 67.851562 790.925781 L 67.851562 791.222656 L 69.707031 791.222656 L 69.707031 789.703125 L 70.625 789.703125 L 70.625 791.222656 L 72.480469 791.222656 L 72.480469 790.925781 L 71.96875 790.925781 Z M 69.355469 789.261719 L 68.867188 789.261719 L 68.867188 788.773438 L 69.355469 788.773438 Z M 69.355469 788.207031 L 68.867188 788.207031 L 68.867188 787.71875 L 69.355469 787.71875 Z M 69.355469 787.152344 L 68.867188 787.152344 L 68.867188 786.65625 L 69.355469 786.65625 Z M 70.410156 789.261719 L 69.921875 789.261719 L 69.921875 788.773438 L 70.410156 788.773438 C 70.410156 788.773438 70.410156 789.261719 70.410156 789.261719 Z M 70.410156 788.207031 L 69.921875 788.207031 L 69.921875 787.71875 L 70.410156 787.71875 C 70.410156 787.71875 70.410156 788.207031 70.410156 788.207031 Z M 70.410156 787.152344 L 69.921875 787.152344 L 69.921875 786.65625 L 70.410156 786.65625 C 70.410156 786.65625 70.410156 787.152344 70.410156 787.152344 Z M 71.464844 789.261719 L 70.96875 789.261719 L 70.96875 788.773438 L 71.464844 788.773438 Z M 71.464844 788.207031 L 70.96875 788.207031 L 70.96875 787.71875 L 71.464844 787.71875 Z M 71.464844 787.152344 L 70.96875 787.152344 L 70.96875 786.65625 L 71.464844 786.65625 Z M 71.464844 787.152344 " fill-opacity="1" fill-rule="nonzero"/></g><g clip-path="url(#ff1d33f866)"><path fill="#f8f8f9" d="M 5.144531 1.4375 L 4.234375 0.527344 C 4.21875 0.507812 4.1875 0.507812 4.171875 0.527344 L 3.914062 0.785156 C 3.898438 0.800781 3.898438 0.828125 3.914062 0.84375 L 4.3125 1.242188 L 0.703125 1.242188 C 0.679688 1.242188 0.660156 1.261719 0.660156 1.285156 L 0.660156 1.648438 C 0.660156 1.675781 0.679688 1.691406 0.703125 1.691406 L 4.3125 1.691406 L 3.914062 2.089844 C 3.898438 2.109375 3.898438 2.136719 3.914062 2.152344 L 4.171875 2.410156 C 4.179688 2.417969 4.191406 2.421875 4.203125 2.421875 C 4.214844 2.421875 4.226562 2.417969 4.234375 2.410156 L 5.144531 1.5 C 5.152344 1.492188 5.15625 1.484375 5.15625 1.476562 C 5.160156 1.460938 5.15625 1.449219 5.144531 1.4375 " fill-opacity="1" fill-rule="nonzero"/></g></g></g></svg>