<svg xmlns="http://www.w3.org/2000/svg" xmlns:xlink="http://www.w3.org/1999/xlink" width="1920" zoomAndPan="magnify" viewBox="0 0 1440 809.999993" height="1080" preserveAspectRatio="xMidYMid meet" version="1.0"><defs><clipPath id="e70edb385d"><path d="M 701.492188 383.792969 L 737.492188 383.792969 L 737.492188 425 L 701.492188 425 Z M 701.492188 383.792969 " clip-rule="nonzero"/></clipPath></defs><g clip-path="url(#e70edb385d)"><path fill="#f8f8f9" d="M 733.59375 422.378906 L 733.59375 387.066406 L 734.613281 387.066406 L 734.613281 383.792969 L 704.453125 383.792969 L 704.453125 387.066406 L 705.472656 387.066406 L 705.472656 422.429688 L 701.558594 422.429688 L 701.558594 424.738281 L 715.992188 424.738281 L 715.992188 412.933594 L 723.128906 412.933594 L 723.128906 424.738281 L 737.566406 424.738281 L 737.566406 422.429688 L 733.59375 422.429688 Z M 713.253906 409.5 L 709.445312 409.5 L 709.445312 405.6875 L 713.253906 405.6875 Z M 713.253906 401.289062 L 709.445312 401.289062 L 709.445312 397.476562 L 713.253906 397.476562 Z M 713.253906 393.078125 L 709.445312 393.078125 L 709.445312 389.214844 L 713.253906 389.214844 Z M 721.464844 409.5 L 717.65625 409.5 L 717.65625 405.6875 L 721.464844 405.6875 C 721.464844 405.6875 721.464844 409.5 721.464844 409.5 Z M 721.464844 401.289062 L 717.65625 401.289062 L 717.65625 397.476562 L 721.464844 397.476562 C 721.464844 397.476562 721.464844 401.289062 721.464844 401.289062 Z M 721.464844 393.078125 L 717.65625 393.078125 L 717.65625 389.214844 L 721.464844 389.214844 C 721.464844 389.214844 721.464844 393.078125 721.464844 393.078125 Z M 729.675781 409.5 L 725.8125 409.5 L 725.8125 405.6875 L 729.675781 405.6875 Z M 729.675781 401.289062 L 725.8125 401.289062 L 725.8125 397.476562 L 729.675781 397.476562 Z M 729.675781 393.078125 L 725.8125 393.078125 L 725.8125 389.214844 L 729.675781 389.214844 Z M 729.675781 393.078125 " fill-opacity="1" fill-rule="nonzero"/></g></svg>