<svg xmlns="http://www.w3.org/2000/svg" xmlns:xlink="http://www.w3.org/1999/xlink" width="1920" zoomAndPan="magnify" viewBox="0 0 1440 809.999993" height="1080" preserveAspectRatio="xMidYMid meet" version="1.0"><defs><clipPath id="5a29fea4d8"><path d="M 80.714844 742.1875 L 93.628906 742.1875 L 93.628906 756.714844 L 80.714844 756.714844 Z M 80.714844 742.1875 " clip-rule="nonzero"/></clipPath><clipPath id="e12d97042b"><path d="M 1 0.695312 L 18 0.695312 L 18 8 L 1 8 Z M 1 0.695312 " clip-rule="nonzero"/></clipPath><clipPath id="902bf3d9d0"><path d="M 0.503906 2 L 18.265625 2 L 18.265625 13.070312 L 0.503906 13.070312 Z M 0.503906 2 " clip-rule="nonzero"/></clipPath><clipPath id="f2fbd27d0a"><rect x="0" width="94" y="0" height="758"/></clipPath></defs><g transform="matrix(1, 0, 0, 1, 673, 26)"><g clip-path="url(#f2fbd27d0a)"><g clip-path="url(#5a29fea4d8)"><path fill="#f8f8f9" d="M 92.230469 756.03125 L 92.230469 743.359375 L 92.597656 743.359375 L 92.597656 742.1875 L 81.777344 742.1875 L 81.777344 743.359375 L 82.144531 743.359375 L 82.144531 756.046875 L 80.738281 756.046875 L 80.738281 756.875 L 85.917969 756.875 L 85.917969 752.640625 L 88.476562 752.640625 L 88.476562 756.875 L 93.65625 756.875 L 93.65625 756.046875 L 92.230469 756.046875 Z M 84.933594 751.410156 L 83.566406 751.410156 L 83.566406 750.042969 L 84.933594 750.042969 Z M 84.933594 748.464844 L 83.566406 748.464844 L 83.566406 747.097656 L 84.933594 747.097656 Z M 84.933594 745.515625 L 83.566406 745.515625 L 83.566406 744.132812 L 84.933594 744.132812 Z M 87.878906 751.410156 L 86.511719 751.410156 L 86.511719 750.042969 L 87.878906 750.042969 C 87.878906 750.042969 87.878906 751.410156 87.878906 751.410156 Z M 87.878906 748.464844 L 86.511719 748.464844 L 86.511719 747.097656 L 87.878906 747.097656 C 87.878906 747.097656 87.878906 748.464844 87.878906 748.464844 Z M 87.878906 745.515625 L 86.511719 745.515625 L 86.511719 744.132812 L 87.878906 744.132812 C 87.878906 744.132812 87.878906 745.515625 87.878906 745.515625 Z M 90.824219 751.410156 L 89.441406 751.410156 L 89.441406 750.042969 L 90.824219 750.042969 Z M 90.824219 748.464844 L 89.441406 748.464844 L 89.441406 747.097656 L 90.824219 747.097656 Z M 90.824219 745.515625 L 89.441406 745.515625 L 89.441406 744.132812 L 90.824219 744.132812 Z M 90.824219 745.515625 " fill-opacity="1" fill-rule="nonzero"/></g><g clip-path="url(#e12d97042b)"><path fill="#f8f8f9" d="M 9.464844 7.894531 C 10.210938 7.84375 14.234375 4.53125 17.804688 1.269531 C 17.441406 0.914062 16.949219 0.699219 16.402344 0.699219 L 2.519531 0.699219 C 1.957031 0.699219 1.453125 0.925781 1.085938 1.296875 C 4.667969 4.542969 8.710938 7.84375 9.464844 7.894531 " fill-opacity="1" fill-rule="nonzero"/></g><g clip-path="url(#902bf3d9d0)"><path fill="#f8f8f9" d="M 14.730469 5.203125 C 10.453125 8.824219 9.757812 8.824219 9.460938 8.824219 C 9.164062 8.824219 8.46875 8.824219 4.191406 5.230469 C 2.695312 3.976562 1.273438 2.710938 0.597656 2.105469 C 0.539062 2.296875 0.503906 2.5 0.503906 2.714844 L 0.503906 11.058594 C 0.503906 12.171875 1.40625 13.070312 2.519531 13.070312 L 16.402344 13.070312 C 17.515625 13.070312 18.417969 12.171875 18.417969 11.058594 L 18.417969 2.710938 C 18.417969 2.484375 18.375 2.265625 18.308594 2.0625 C 17.628906 2.679688 16.214844 3.945312 14.730469 5.203125 " fill-opacity="1" fill-rule="nonzero"/></g></g></g></svg>