<svg xmlns="http://www.w3.org/2000/svg" xmlns:xlink="http://www.w3.org/1999/xlink" width="1920" zoomAndPan="magnify" viewBox="0 0 1440 809.999993" height="1080" preserveAspectRatio="xMidYMid meet" version="1.0"><defs><filter x="0%" y="0%" width="100%" height="100%" id="27d0c65252"><feColorMatrix values="0 0 0 0 1 0 0 0 0 1 0 0 0 0 1 0 0 0 1 0" color-interpolation-filters="sRGB"/></filter><clipPath id="d924c878e0"><path d="M 109.867188 753.804688 L 120.636719 753.804688 L 120.636719 765.921875 L 109.867188 765.921875 Z M 109.867188 753.804688 " clip-rule="nonzero"/></clipPath><clipPath id="44b791f81b"><path d="M 0.761719 0.839844 L 112 0.839844 L 112 181 L 0.761719 181 Z M 0.761719 0.839844 " clip-rule="nonzero"/></clipPath><mask id="0b2cb67890"><g filter="url(#27d0c65252)"><rect x="-975.8" width="2073.6" fill="#000000" y="-199.199998" height="1166.39999" fill-opacity="0.07"/></g></mask><clipPath id="f46a2e0d10"><path d="M 1 0.929688 L 111.234375 0.929688 L 111.234375 129 L 1 129 Z M 1 0.929688 " clip-rule="nonzero"/></clipPath><clipPath id="3f3e02c394"><path d="M 32 141 L 72 141 L 72 180.839844 L 32 180.839844 Z M 32 141 " clip-rule="nonzero"/></clipPath><clipPath id="815e6cd6bd"><rect x="0" width="112" y="0" height="181"/></clipPath><clipPath id="8a2986abe9"><rect x="0" width="121" y="0" height="767"/></clipPath></defs><g transform="matrix(1, 0, 0, 1, 659, 21)"><g clip-path="url(#8a2986abe9)"><g clip-path="url(#d924c878e0)"><path fill="#f8f8f9" d="M 119.472656 765.347656 L 119.472656 754.785156 L 119.777344 754.785156 L 119.777344 753.804688 L 110.753906 753.804688 L 110.753906 754.785156 L 111.058594 754.785156 L 111.058594 765.363281 L 109.886719 765.363281 L 109.886719 766.054688 L 114.207031 766.054688 L 114.207031 762.523438 L 116.34375 762.523438 L 116.34375 766.054688 L 120.660156 766.054688 L 120.660156 765.363281 L 119.472656 765.363281 Z M 113.386719 761.496094 L 112.25 761.496094 L 112.25 760.355469 L 113.386719 760.355469 Z M 113.386719 759.039062 L 112.25 759.039062 L 112.25 757.898438 L 113.386719 757.898438 Z M 113.386719 756.582031 L 112.25 756.582031 L 112.25 755.425781 L 113.386719 755.425781 Z M 115.84375 761.496094 L 114.703125 761.496094 L 114.703125 760.355469 L 115.84375 760.355469 C 115.84375 760.355469 115.84375 761.496094 115.84375 761.496094 Z M 115.84375 759.039062 L 114.703125 759.039062 L 114.703125 757.898438 L 115.84375 757.898438 C 115.84375 757.898438 115.84375 759.039062 115.84375 759.039062 Z M 115.84375 756.582031 L 114.703125 756.582031 L 114.703125 755.425781 L 115.84375 755.425781 C 115.84375 755.425781 115.84375 756.582031 115.84375 756.582031 Z M 118.300781 761.496094 L 117.144531 761.496094 L 117.144531 760.355469 L 118.300781 760.355469 Z M 118.300781 759.039062 L 117.144531 759.039062 L 117.144531 757.898438 L 118.300781 757.898438 Z M 118.300781 756.582031 L 117.144531 756.582031 L 117.144531 755.425781 L 118.300781 755.425781 Z M 118.300781 756.582031 " fill-opacity="1" fill-rule="nonzero"/></g><g clip-path="url(#44b791f81b)"><g mask="url(#0b2cb67890)"><g transform="matrix(1, 0, 0, 1, -0.000000000000113687, 0.00000000000003908)"><g clip-path="url(#815e6cd6bd)"><g clip-path="url(#f46a2e0d10)"><path fill="#008000" d="M 103.9375 21.792969 C 99.1875 15.03125 92.640625 9.851562 84.296875 6.289062 C 75.988281 2.730469 66.382812 0.929688 55.519531 0.929688 C 45.625 0.929688 36.597656 2.695312 28.433594 6.21875 C 20.265625 9.707031 13.683594 15.066406 8.71875 22.15625 C 4.761719 27.800781 2.316406 34.636719 1.308594 42.660156 C 0.878906 46.148438 3.648438 49.242188 7.171875 49.242188 L 29.042969 49.242188 C 31.847656 49.242188 34.222656 47.261719 34.835938 44.527344 C 35.375 42.082031 36.273438 39.890625 37.53125 38.019531 C 39.546875 34.996094 42.136719 32.695312 45.300781 31.148438 C 48.46875 29.601562 51.8125 28.808594 55.375 28.808594 C 59.042969 28.808594 62.351562 29.566406 65.410156 31.113281 C 68.433594 32.621094 70.84375 34.816406 72.640625 37.660156 C 74.441406 40.5 75.339844 43.773438 75.339844 47.550781 C 75.339844 51.113281 74.546875 54.3125 72.964844 57.15625 C 71.382812 59.996094 69.261719 62.621094 66.597656 64.960938 C 63.898438 67.335938 60.914062 69.566406 57.53125 71.761719 C 53 74.601562 49.117188 77.765625 45.914062 81.257812 C 42.675781 84.746094 40.265625 89.3125 38.574219 94.996094 C 36.921875 100.679688 36.058594 108.269531 36.023438 117.804688 L 36.023438 122.550781 C 36.023438 125.789062 38.648438 128.453125 41.921875 128.453125 L 61.167969 128.453125 C 64.402344 128.453125 67.066406 125.824219 67.066406 122.550781 L 67.066406 117.804688 C 67.136719 112.445312 67.820312 107.949219 69.152344 104.316406 C 70.484375 100.679688 72.535156 97.445312 75.265625 94.675781 C 78.035156 91.902344 81.5625 89.242188 85.878906 86.652344 C 91.023438 83.59375 95.449219 80.175781 99.222656 76.363281 C 102.964844 72.585938 105.914062 68.199219 108.039062 63.269531 C 110.125 58.34375 111.203125 52.660156 111.203125 46.292969 C 111.09375 36.722656 108.683594 28.558594 103.9375 21.792969 Z M 103.9375 21.792969 " fill-opacity="1" fill-rule="nonzero"/></g><g clip-path="url(#3f3e02c394)"><path fill="#008000" d="M 52.136719 141.6875 C 46.667969 141.6875 42.027344 143.597656 38.179688 147.410156 C 34.332031 151.222656 32.425781 155.828125 32.496094 161.148438 C 32.425781 166.546875 34.332031 171.1875 38.179688 175.035156 C 42.027344 178.882812 46.667969 180.789062 52.136719 180.789062 C 55.625 180.789062 58.863281 179.890625 61.777344 178.128906 C 64.726562 176.332031 67.101562 173.992188 68.9375 171.007812 C 70.769531 168.019531 71.707031 164.746094 71.742188 161.148438 C 71.671875 155.789062 69.691406 151.222656 65.769531 147.410156 C 61.886719 143.597656 57.316406 141.6875 52.136719 141.6875 Z M 52.136719 141.6875 " fill-opacity="1" fill-rule="nonzero"/></g></g></g></g></g></g></g></svg>