<svg xmlns="http://www.w3.org/2000/svg" xmlns:xlink="http://www.w3.org/1999/xlink" width="1920" zoomAndPan="magnify" viewBox="0 0 1440 809.999993" height="1080" preserveAspectRatio="xMidYMid meet" version="1.0"><defs><clipPath id="fe2c045864"><path d="M 698.839844 381.863281 L 723 381.863281 L 723 422 L 698.839844 422 Z M 698.839844 381.863281 " clip-rule="nonzero"/></clipPath></defs><g clip-path="url(#fe2c045864)"><path fill="#f8f8f9" d="M 714.382812 381.863281 C 714.96875 382 715.5625 382.097656 716.148438 382.253906 C 718.605469 382.960938 720.550781 384.371094 722.058594 386.476562 C 717.414062 387.945312 714.25 390.925781 712.9375 395.632812 C 711.597656 400.449219 713.09375 404.515625 716.585938 407.96875 C 711.707031 411.128906 708.535156 415.265625 708.824219 421.421875 C 708.65625 421.433594 708.519531 421.457031 708.386719 421.457031 C 706.820312 421.457031 705.25 421.46875 703.667969 421.457031 C 701.210938 421.445312 699.375 419.875 698.949219 417.457031 C 698.9375 417.347656 698.898438 417.25 698.863281 417.152344 L 698.863281 413.039062 C 698.886719 412.917969 698.9375 412.796875 698.949219 412.675781 C 699.082031 411.226562 699.542969 409.878906 700.273438 408.636719 C 702.109375 405.535156 704.835938 403.515625 708.132812 402.203125 C 708.351562 402.117188 708.570312 402.03125 708.691406 401.984375 C 707.644531 401.109375 706.527344 400.304688 705.566406 399.34375 C 703.753906 397.519531 702.597656 395.304688 702.550781 392.652344 C 702.453125 387.8125 705.808594 383.433594 710.503906 382.230469 C 711.039062 382.097656 711.585938 381.988281 712.132812 381.863281 Z M 714.382812 381.863281 " fill-opacity="1" fill-rule="nonzero"/></g><path fill="#f8f8f9" d="M 721.027344 408.480469 C 720.308594 407.957031 719.566406 407.480469 718.898438 406.910156 C 716.902344 405.21875 715.394531 403.175781 714.957031 400.535156 C 714.457031 397.53125 715.222656 394.796875 717.144531 392.460938 C 719.894531 389.101562 723.507812 387.738281 727.753906 388.664062 C 732.226562 389.636719 735 392.542969 736 397.019531 C 736.765625 400.4375 735.632812 403.359375 733.273438 405.816406 C 732.386719 406.726562 731.292969 407.445312 730.28125 408.246094 C 730.183594 408.320312 730.085938 408.382812 729.929688 408.480469 C 730.5 408.722656 731.035156 408.917969 731.546875 409.160156 C 734.660156 410.621094 737.203125 412.699219 738.796875 415.8125 C 739.464844 417.117188 739.84375 418.5 739.792969 419.984375 C 739.757812 421.164062 739.78125 422.34375 739.78125 423.539062 C 739.78125 425.640625 738.226562 427.527344 736.15625 427.917969 C 735.839844 427.976562 735.511719 428 735.183594 428 L 715.808594 428 C 713.351562 428 711.269531 426.117188 711.199219 423.660156 C 711.148438 421.90625 711.113281 420.132812 711.367188 418.40625 C 711.769531 415.714844 713.339844 413.613281 715.332031 411.824219 C 716.890625 410.425781 718.679688 409.402344 720.636719 408.671875 C 720.757812 408.625 720.867188 408.589844 720.976562 408.539062 C 721.011719 408.527344 721.027344 408.492188 721.027344 408.480469 Z M 721.027344 408.480469 " fill-opacity="1" fill-rule="nonzero"/></svg>