<svg xmlns="http://www.w3.org/2000/svg" xmlns:xlink="http://www.w3.org/1999/xlink" width="1920" zoomAndPan="magnify" viewBox="0 0 1440 809.999993" height="1080" preserveAspectRatio="xMidYMid meet" version="1.0"><defs><clipPath id="3a107713b1"><path d="M 699.5 392.527344 L 740 392.527344 L 740 416.527344 L 699.5 416.527344 Z M 699.5 392.527344 " clip-rule="nonzero"/></clipPath></defs><g clip-path="url(#3a107713b1)"><path fill="#f8f8f9" d="M 736.714844 398.34375 L 723.59375 411.460938 C 722.9375 412.121094 721.871094 412.121094 721.214844 411.460938 L 713.988281 404.234375 L 702.550781 415.671875 C 701.894531 416.328125 700.828125 416.328125 700.171875 415.671875 C 699.511719 415.011719 699.511719 413.949219 700.171875 413.289062 L 712.796875 400.664062 C 713.453125 400.007812 714.519531 400.007812 715.175781 400.664062 L 722.402344 407.890625 L 734.332031 395.960938 L 728.296875 395.960938 C 727.367188 395.960938 726.613281 395.210938 726.613281 394.28125 C 726.613281 393.347656 727.367188 392.597656 728.296875 392.597656 L 738.398438 392.597656 C 739.328125 392.597656 740.082031 393.347656 740.082031 394.28125 L 740.082031 404.378906 C 740.082031 405.308594 739.328125 406.0625 738.398438 406.0625 C 737.46875 406.0625 736.714844 405.308594 736.714844 404.378906 Z M 736.714844 398.34375 " fill-opacity="1" fill-rule="nonzero"/></g></svg>