<svg xmlns="http://www.w3.org/2000/svg" xmlns:xlink="http://www.w3.org/1999/xlink" width="1920" zoomAndPan="magnify" viewBox="0 0 1440 809.999993" height="1080" preserveAspectRatio="xMidYMid meet" version="1.0"><defs><clipPath id="94f373a3f9"><path d="M 685.003906 384.550781 L 754.003906 384.550781 L 754.003906 425 L 685.003906 425 Z M 685.003906 384.550781 " clip-rule="nonzero"/></clipPath></defs><g clip-path="url(#94f373a3f9)"><path fill="#004225" d="M 748.613281 394.496094 L 726.191406 416.917969 C 725.066406 418.039062 723.246094 418.039062 722.121094 416.917969 L 709.769531 404.566406 L 690.222656 424.109375 C 689.101562 425.234375 687.277344 425.234375 686.15625 424.109375 C 685.03125 422.988281 685.03125 421.164062 686.15625 420.042969 L 707.734375 398.460938 C 708.859375 397.335938 710.679688 397.335938 711.804688 398.460938 L 724.15625 410.8125 L 744.542969 390.425781 L 734.226562 390.425781 C 732.636719 390.425781 731.351562 389.136719 731.351562 387.546875 C 731.351562 385.957031 732.636719 384.671875 734.226562 384.671875 L 751.492188 384.671875 C 753.082031 384.671875 754.367188 385.957031 754.367188 387.546875 L 754.367188 404.8125 C 754.367188 406.402344 753.082031 407.6875 751.492188 407.6875 C 749.902344 407.6875 748.613281 406.402344 748.613281 404.8125 Z M 748.613281 394.496094 " fill-opacity="1" fill-rule="nonzero"/></g></svg>