<svg xmlns="http://www.w3.org/2000/svg" xmlns:xlink="http://www.w3.org/1999/xlink" width="1920" zoomAndPan="magnify" viewBox="0 0 1440 809.999993" height="1080" preserveAspectRatio="xMidYMid meet" version="1.0"><defs><clipPath id="b53ce3fbf2"><path d="M 698 392.296875 L 741.488281 392.296875 L 741.488281 416.296875 L 698 416.296875 Z M 698 392.296875 " clip-rule="nonzero"/></clipPath></defs><g clip-path="url(#b53ce3fbf2)"><path fill="#f8f8f9" d="M 740.304688 392.296875 L 698.808594 392.296875 C 698.367188 392.296875 698.007812 392.65625 698.007812 393.09375 L 698.007812 415.441406 C 698.007812 415.882812 698.367188 416.238281 698.808594 416.238281 L 740.304688 416.238281 C 740.746094 416.238281 741.105469 415.882812 741.105469 415.441406 L 741.105469 393.09375 C 741.105469 392.65625 740.746094 392.296875 740.304688 392.296875 Z M 739.507812 414.644531 L 699.605469 414.644531 L 699.605469 393.894531 L 739.507812 393.894531 Z M 739.507812 414.644531 " fill-opacity="1" fill-rule="nonzero"/></g><path fill="#f8f8f9" d="M 702 409.855469 C 703.320312 409.855469 704.394531 410.929688 704.394531 412.25 C 704.394531 412.691406 704.75 413.046875 705.191406 413.046875 L 733.921875 413.046875 C 734.363281 413.046875 734.71875 412.691406 734.71875 412.25 C 734.71875 410.929688 735.792969 409.855469 737.113281 409.855469 C 737.554688 409.855469 737.910156 409.496094 737.910156 409.054688 L 737.910156 399.480469 C 737.910156 399.039062 737.554688 398.683594 737.113281 398.683594 C 735.792969 398.683594 734.71875 397.609375 734.71875 396.289062 C 734.71875 395.847656 734.363281 395.488281 733.921875 395.488281 L 705.191406 395.488281 C 704.75 395.488281 704.394531 395.847656 704.394531 396.289062 C 704.394531 397.609375 703.320312 398.683594 702 398.683594 C 701.558594 398.683594 701.203125 399.039062 701.203125 399.480469 L 701.203125 409.054688 C 701.203125 409.496094 701.558594 409.855469 702 409.855469 Z M 702.796875 400.195312 C 704.359375 399.878906 705.589844 398.648438 705.910156 397.085938 L 733.203125 397.085938 C 733.519531 398.648438 734.753906 399.878906 736.316406 400.195312 L 736.316406 408.339844 C 734.753906 408.65625 733.519531 409.890625 733.203125 411.449219 L 705.910156 411.449219 C 705.589844 409.890625 704.359375 408.65625 702.796875 408.339844 Z M 702.796875 400.195312 " fill-opacity="1" fill-rule="nonzero"/><path fill="#f8f8f9" d="M 719.558594 409.855469 C 722.636719 409.855469 725.144531 407.347656 725.144531 404.269531 C 725.144531 401.1875 722.636719 398.683594 719.558594 398.683594 C 716.476562 398.683594 713.96875 401.1875 713.96875 404.269531 C 713.96875 407.347656 716.476562 409.855469 719.558594 409.855469 Z M 719.558594 400.277344 C 721.757812 400.277344 723.546875 402.066406 723.546875 404.269531 C 723.546875 406.46875 721.757812 408.257812 719.558594 408.257812 C 717.355469 408.257812 715.566406 406.46875 715.566406 404.269531 C 715.566406 402.066406 717.355469 400.277344 719.558594 400.277344 Z M 719.558594 400.277344 " fill-opacity="1" fill-rule="nonzero"/></svg>