<svg xmlns="http://www.w3.org/2000/svg" xmlns:xlink="http://www.w3.org/1999/xlink" width="1920" zoomAndPan="magnify" viewBox="0 0 1440 809.999993" height="1080" preserveAspectRatio="xMidYMid meet" version="1.0"><defs><clipPath id="47a862700d"><path d="M 704 387 L 742.546875 387 L 742.546875 418 L 704 418 Z M 704 387 " clip-rule="nonzero"/></clipPath><clipPath id="90e44f4d39"><path d="M 696.796875 378.375 L 739 378.375 L 739 430.875 L 696.796875 430.875 Z M 696.796875 378.375 " clip-rule="nonzero"/></clipPath></defs><g clip-path="url(#47a862700d)"><path fill="#004225" d="M 717.589844 417.230469 L 704.144531 403.773438 L 708.789062 399.128906 L 717.589844 407.929688 L 738.066406 387.453125 L 742.710938 392.109375 Z M 717.589844 417.230469 " fill-opacity="1" fill-rule="nonzero"/></g><g clip-path="url(#90e44f4d39)"><path fill="#004225" d="M 733.996094 402.929688 L 733.996094 406.5625 C 733.996094 414.742188 726.957031 423.246094 717.503906 426.597656 C 708.0625 423.253906 701.011719 414.742188 701.011719 406.5625 L 701.011719 390.679688 C 708.09375 390.253906 714.171875 387.925781 717.503906 384.464844 C 720.632812 387.710938 726.1875 389.964844 732.714844 390.582031 L 736.664062 386.855469 C 736.484375 386.800781 736.300781 386.855469 736.109375 386.855469 C 723.496094 386.855469 717.503906 378.375 717.503906 378.375 C 717.503906 378.375 711.664062 386.855469 698.898438 386.855469 L 696.804688 386.855469 L 696.804688 406.5625 C 696.804688 416.835938 705.230469 427.035156 716.851562 430.816406 L 717.503906 430.945312 L 718.15625 430.816406 C 729.777344 427.035156 738.203125 416.835938 738.203125 406.5625 L 738.203125 398.722656 Z M 733.996094 402.929688 " fill-opacity="1" fill-rule="nonzero"/></g></svg>