<svg xmlns="http://www.w3.org/2000/svg" xmlns:xlink="http://www.w3.org/1999/xlink" width="1920" zoomAndPan="magnify" viewBox="0 0 1440 809.999993" height="1080" preserveAspectRatio="xMidYMid meet" version="1.0"><defs><clipPath id="4752bba726"><path d="M 0.914062 745.804688 L 13.230469 745.804688 L 13.230469 759.660156 L 0.914062 759.660156 Z M 0.914062 745.804688 " clip-rule="nonzero"/></clipPath><clipPath id="1108801828"><path d="M 26.105469 13 L 34 13 L 34 27.820312 L 26.105469 27.820312 Z M 26.105469 13 " clip-rule="nonzero"/></clipPath><clipPath id="d5a856b666"><path d="M 35 7 L 44 7 L 44 27.820312 L 35 27.820312 Z M 35 7 " clip-rule="nonzero"/></clipPath><clipPath id="22df899ca3"><path d="M 45 1.132812 L 53.300781 1.132812 L 53.300781 27.820312 L 45 27.820312 Z M 45 1.132812 " clip-rule="nonzero"/></clipPath><clipPath id="56655225aa"><rect x="0" width="54" y="0" height="761"/></clipPath></defs><g transform="matrix(1, 0, 0, 1, 693, 24)"><g clip-path="url(#56655225aa)"><g clip-path="url(#4752bba726)"><path fill="#f8f8f9" d="M 11.894531 759.003906 L 11.894531 746.925781 L 12.246094 746.925781 L 12.246094 745.804688 L 1.925781 745.804688 L 1.925781 746.925781 L 2.273438 746.925781 L 2.273438 759.023438 L 0.933594 759.023438 L 0.933594 759.8125 L 5.875 759.8125 L 5.875 755.773438 L 8.316406 755.773438 L 8.316406 759.8125 L 13.253906 759.8125 L 13.253906 759.023438 L 11.894531 759.023438 Z M 4.9375 754.597656 L 3.632812 754.597656 L 3.632812 753.296875 L 4.9375 753.296875 Z M 4.9375 751.789062 L 3.632812 751.789062 L 3.632812 750.488281 L 4.9375 750.488281 Z M 4.9375 748.980469 L 3.632812 748.980469 L 3.632812 747.660156 L 4.9375 747.660156 Z M 7.746094 754.597656 L 6.441406 754.597656 L 6.441406 753.296875 L 7.746094 753.296875 C 7.746094 753.296875 7.746094 754.597656 7.746094 754.597656 Z M 7.746094 751.789062 L 6.441406 751.789062 L 6.441406 750.488281 L 7.746094 750.488281 C 7.746094 750.488281 7.746094 751.789062 7.746094 751.789062 Z M 7.746094 748.980469 L 6.441406 748.980469 L 6.441406 747.660156 L 7.746094 747.660156 C 7.746094 747.660156 7.746094 748.980469 7.746094 748.980469 Z M 10.554688 754.597656 L 9.234375 754.597656 L 9.234375 753.296875 L 10.554688 753.296875 Z M 10.554688 751.789062 L 9.234375 751.789062 L 9.234375 750.488281 L 10.554688 750.488281 Z M 10.554688 748.980469 L 9.234375 748.980469 L 9.234375 747.660156 L 10.554688 747.660156 Z M 10.554688 748.980469 " fill-opacity="1" fill-rule="nonzero"/></g><path fill="#004225" d="M 27.199219 14.769531 C 27.136719 14.769531 27.082031 14.820312 27.082031 14.886719 L 27.082031 26.519531 C 27.082031 26.582031 27.136719 26.636719 27.199219 26.636719 L 32.835938 26.636719 C 32.898438 26.636719 32.953125 26.582031 32.953125 26.519531 L 32.953125 14.886719 C 32.953125 14.820312 32.898438 14.769531 32.835938 14.769531 Z M 27.199219 14.769531 " fill-opacity="1" fill-rule="nonzero"/><g clip-path="url(#1108801828)"><path fill="#004225" d="M 27.199219 13.835938 C 26.621094 13.835938 26.152344 14.308594 26.152344 14.886719 L 26.152344 26.519531 C 26.152344 27.097656 26.621094 27.566406 27.199219 27.566406 L 32.835938 27.566406 C 33.414062 27.566406 33.882812 27.097656 33.882812 26.519531 L 33.882812 14.886719 C 33.882812 14.308594 33.414062 13.835938 32.835938 13.835938 Z M 32.953125 14.886719 L 32.953125 26.519531 C 32.953125 26.582031 32.898438 26.636719 32.835938 26.636719 L 27.199219 26.636719 C 27.136719 26.636719 27.082031 26.582031 27.082031 26.519531 L 27.082031 14.886719 C 27.082031 14.820312 27.136719 14.769531 27.199219 14.769531 L 32.835938 14.769531 C 32.898438 14.769531 32.953125 14.820312 32.953125 14.886719 Z M 32.953125 14.886719 " fill-opacity="1" fill-rule="nonzero"/></g><path fill="#004225" d="M 42.492188 8.015625 L 36.859375 8.015625 C 36.792969 8.015625 36.742188 8.070312 36.742188 8.132812 L 36.742188 26.519531 C 36.742188 26.582031 36.792969 26.636719 36.859375 26.636719 L 42.492188 26.636719 C 42.558594 26.636719 42.609375 26.582031 42.609375 26.519531 L 42.609375 8.132812 C 42.609375 8.070312 42.558594 8.015625 42.492188 8.015625 Z M 42.492188 8.015625 " fill-opacity="1" fill-rule="nonzero"/><g clip-path="url(#d5a856b666)"><path fill="#004225" d="M 42.492188 7.085938 L 36.859375 7.085938 C 36.28125 7.085938 35.808594 7.554688 35.808594 8.132812 L 35.808594 26.519531 C 35.808594 27.097656 36.28125 27.566406 36.859375 27.566406 L 42.492188 27.566406 C 43.074219 27.566406 43.542969 27.097656 43.542969 26.519531 L 43.542969 8.132812 C 43.542969 7.554688 43.074219 7.085938 42.492188 7.085938 Z M 42.609375 26.519531 C 42.609375 26.582031 42.558594 26.636719 42.492188 26.636719 L 36.859375 26.636719 C 36.792969 26.636719 36.742188 26.582031 36.742188 26.519531 L 36.742188 8.132812 C 36.742188 8.070312 36.792969 8.015625 36.859375 8.015625 L 42.492188 8.015625 C 42.558594 8.015625 42.613281 8.070312 42.613281 8.132812 L 42.613281 26.519531 Z M 42.609375 26.519531 " fill-opacity="1" fill-rule="nonzero"/></g><path fill="#004225" d="M 46.519531 26.636719 L 52.152344 26.636719 C 52.21875 26.636719 52.269531 26.582031 52.269531 26.519531 L 52.269531 2.183594 C 52.269531 2.117188 52.21875 2.066406 52.152344 2.066406 L 46.519531 2.066406 C 46.453125 2.066406 46.398438 2.117188 46.398438 2.183594 L 46.398438 26.519531 C 46.398438 26.582031 46.453125 26.636719 46.519531 26.636719 Z M 46.519531 26.636719 " fill-opacity="1" fill-rule="nonzero"/><g clip-path="url(#22df899ca3)"><path fill="#004225" d="M 46.519531 27.566406 L 52.152344 27.566406 C 52.730469 27.566406 53.203125 27.097656 53.203125 26.519531 L 53.203125 2.183594 C 53.203125 1.605469 52.730469 1.132812 52.152344 1.132812 L 46.519531 1.132812 C 45.9375 1.132812 45.46875 1.605469 45.46875 2.183594 L 45.46875 26.519531 C 45.46875 27.097656 45.9375 27.566406 46.519531 27.566406 Z M 46.398438 2.183594 C 46.398438 2.117188 46.453125 2.066406 46.519531 2.066406 L 52.152344 2.066406 C 52.21875 2.066406 52.269531 2.117188 52.269531 2.183594 L 52.269531 26.519531 C 52.269531 26.582031 52.21875 26.636719 52.152344 26.636719 L 46.519531 26.636719 C 46.453125 26.636719 46.398438 26.582031 46.398438 26.519531 Z M 46.398438 2.183594 " fill-opacity="1" fill-rule="nonzero"/></g></g></g></svg>