<svg xmlns="http://www.w3.org/2000/svg" xmlns:xlink="http://www.w3.org/1999/xlink" width="1920" zoomAndPan="magnify" viewBox="0 0 1440 809.999993" height="1080" preserveAspectRatio="xMidYMid meet" version="1.0"><defs><clipPath id="1b38ee07db"><path d="M 701.867188 383.828125 L 737.804688 383.828125 L 737.804688 425.078125 L 701.867188 425.078125 Z M 701.867188 383.828125 " clip-rule="nonzero"/></clipPath></defs><g clip-path="url(#1b38ee07db)"><path fill="#f8f8f9" d="M 735.097656 402.832031 C 734.269531 407.121094 732.699219 410.9375 730.429688 414.175781 C 727.820312 417.890625 724.242188 420.882812 719.789062 423.085938 C 715.378906 420.886719 711.832031 417.894531 709.242188 414.183594 C 706.980469 410.941406 705.414062 407.125 704.585938 402.832031 C 703.835938 398.953125 703.84375 395.40625 703.976562 393.113281 C 704.023438 392.355469 704.085938 391.683594 704.148438 391.121094 C 705.332031 390.917969 706.914062 390.609375 708.679688 390.179688 C 711.785156 389.425781 716.085938 388.144531 719.855469 386.160156 C 723.621094 388.144531 727.910156 389.429688 731.011719 390.183594 C 732.773438 390.613281 734.335938 390.917969 735.511719 391.125 C 735.578125 391.683594 735.640625 392.355469 735.6875 393.121094 C 735.828125 395.410156 735.84375 398.957031 735.097656 402.832031 Z M 737.722656 392.996094 C 737.621094 391.320312 737.441406 390.050781 737.324219 389.351562 C 736.296875 389.199219 734.136719 388.84375 731.492188 388.203125 C 728.242188 387.410156 723.636719 386.019531 719.855469 383.828125 C 716.070312 386.015625 711.457031 387.40625 708.199219 388.199219 C 705.558594 388.839844 703.363281 389.199219 702.328125 389.351562 C 702.214844 390.042969 702.042969 391.304688 701.941406 392.992188 C 701.800781 395.402344 701.792969 399.132812 702.582031 403.21875 C 703.464844 407.792969 705.144531 411.875 707.566406 415.347656 C 710.535156 419.601562 714.644531 422.960938 719.785156 425.347656 C 724.972656 422.960938 729.113281 419.597656 732.097656 415.347656 C 734.535156 411.871094 736.21875 407.792969 737.101562 403.21875 C 737.886719 399.132812 737.875 395.402344 737.722656 392.996094 " fill-opacity="1" fill-rule="nonzero"/></g></svg>