<svg xmlns="http://www.w3.org/2000/svg" xmlns:xlink="http://www.w3.org/1999/xlink" width="1920" zoomAndPan="magnify" viewBox="0 0 1440 809.999993" height="1080" preserveAspectRatio="xMidYMid meet" version="1.0"><defs><clipPath id="d77471245f"><path d="M 66.363281 773.054688 L 73.40625 773.054688 L 73.40625 781.269531 L 66.363281 781.269531 Z M 66.363281 773.054688 " clip-rule="nonzero"/></clipPath><clipPath id="7f3ac9aba9"><path d="M 0.0390625 0.417969 L 8.472656 0.417969 L 8.472656 8.632812 L 0.0390625 8.632812 Z M 0.0390625 0.417969 " clip-rule="nonzero"/></clipPath><clipPath id="655b79e7ac"><rect x="0" width="74" y="0" height="782"/></clipPath></defs><g transform="matrix(1, 0, 0, 1, 683, 14)"><g clip-path="url(#655b79e7ac)"><g clip-path="url(#d77471245f)"><path fill="#f8f8f9" d="M 72.644531 780.597656 L 72.644531 773.695312 L 72.84375 773.695312 L 72.84375 773.054688 L 66.945312 773.054688 L 66.945312 773.695312 L 67.144531 773.695312 L 67.144531 780.609375 L 66.378906 780.609375 L 66.378906 781.058594 L 69.203125 781.058594 L 69.203125 778.75 L 70.597656 778.75 L 70.597656 781.058594 L 73.417969 781.058594 L 73.417969 780.609375 L 72.644531 780.609375 Z M 68.667969 778.078125 L 67.921875 778.078125 L 67.921875 777.335938 L 68.667969 777.335938 Z M 68.667969 776.472656 L 67.921875 776.472656 L 67.921875 775.730469 L 68.667969 775.730469 Z M 68.667969 774.867188 L 67.921875 774.867188 L 67.921875 774.113281 L 68.667969 774.113281 Z M 70.273438 778.078125 L 69.527344 778.078125 L 69.527344 777.335938 L 70.273438 777.335938 C 70.273438 777.335938 70.273438 778.078125 70.273438 778.078125 Z M 70.273438 776.472656 L 69.527344 776.472656 L 69.527344 775.730469 L 70.273438 775.730469 C 70.273438 775.730469 70.273438 776.472656 70.273438 776.472656 Z M 70.273438 774.867188 L 69.527344 774.867188 L 69.527344 774.113281 L 70.273438 774.113281 C 70.273438 774.113281 70.273438 774.867188 70.273438 774.867188 Z M 71.878906 778.078125 L 71.121094 778.078125 L 71.121094 777.335938 L 71.878906 777.335938 Z M 71.878906 776.472656 L 71.121094 776.472656 L 71.121094 775.730469 L 71.878906 775.730469 Z M 71.878906 774.867188 L 71.121094 774.867188 L 71.121094 774.113281 L 71.878906 774.113281 Z M 71.878906 774.867188 " fill-opacity="1" fill-rule="nonzero"/></g><g clip-path="url(#7f3ac9aba9)"><path fill="#f8f8f9" d="M 1.007812 0.507812 C 1.007812 0.507812 -0.335938 2.003906 0.261719 3.296875 C 0.816406 4.5 2.496094 7.296875 5.316406 8.441406 C 5.730469 8.609375 6.179688 8.675781 6.617188 8.59375 C 6.945312 8.535156 7.851562 8.339844 8.148438 7.984375 C 8.179688 7.945312 8.238281 7.902344 8.296875 7.8125 C 8.347656 7.730469 8.445312 7.628906 8.40625 7.449219 C 8.359375 7.207031 7.34375 6.273438 6.953125 5.917969 C 6.835938 5.8125 6.6875 5.75 6.53125 5.75 C 6.429688 5.75 6.339844 5.773438 6.300781 5.839844 C 6.027344 6.328125 5.738281 6.648438 5.492188 6.777344 C 5.171875 6.945312 3.175781 5.558594 2.371094 3.929688 C 2.246094 3.679688 2.300781 3.375 2.503906 3.183594 C 2.753906 2.941406 3.164062 2.53125 3.175781 2.449219 C 3.195312 2.308594 3.140625 2.222656 3.0625 2.042969 C 3 1.902344 2.089844 1.007812 1.703125 0.636719 C 1.5625 0.5 1.375 0.421875 1.179688 0.425781 C 1.117188 0.429688 1.03125 0.476562 1.007812 0.507812 Z M 1.007812 0.507812 " fill-opacity="1" fill-rule="nonzero"/></g></g></g></svg>