<svg xmlns="http://www.w3.org/2000/svg" xmlns:xlink="http://www.w3.org/1999/xlink" width="1920" zoomAndPan="magnify" viewBox="0 0 1440 809.999993" height="1080" preserveAspectRatio="xMidYMid meet" version="1.0"><defs><clipPath id="5b0b452b44"><path d="M 693.15625 387.339844 L 746 387.339844 L 746 421.089844 L 693.15625 421.089844 Z M 693.15625 387.339844 " clip-rule="nonzero"/></clipPath></defs><g clip-path="url(#5b0b452b44)"><path fill="#f8f8f9" d="M 745.523438 403.144531 C 745.019531 402.453125 733.242188 387.453125 719.59375 387.453125 C 706.617188 387.453125 694.222656 402.453125 693.699219 403.089844 C 693.558594 403.265625 693.449219 403.457031 693.375 403.671875 C 693.300781 403.882812 693.261719 404.101562 693.261719 404.328125 C 693.261719 404.550781 693.300781 404.769531 693.375 404.984375 C 693.449219 405.195312 693.558594 405.390625 693.699219 405.5625 C 694.222656 406.203125 706.617188 421.203125 719.59375 421.203125 C 732.566406 421.203125 744.980469 406.203125 745.488281 405.46875 C 745.761719 405.132812 745.902344 404.75 745.910156 404.3125 C 745.917969 403.878906 745.789062 403.492188 745.523438 403.144531 Z M 719.59375 417.453125 C 710.441406 417.453125 700.9375 407.871094 697.804688 404.328125 C 700.9375 400.859375 710.441406 391.203125 719.59375 391.203125 C 729.25 391.203125 738.4375 400.78125 741.417969 404.328125 C 738.34375 407.738281 728.96875 417.453125 719.59375 417.453125 Z M 719.59375 417.453125 " fill-opacity="1" fill-rule="nonzero"/></g><path fill="#f8f8f9" d="M 719.59375 394.953125 C 718.976562 394.953125 718.367188 395.011719 717.765625 395.132812 C 717.160156 395.25 716.574219 395.429688 716.003906 395.664062 C 715.4375 395.902344 714.894531 396.191406 714.382812 396.53125 C 713.871094 396.875 713.398438 397.261719 712.964844 397.699219 C 712.527344 398.132812 712.140625 398.605469 711.796875 399.117188 C 711.457031 399.628906 711.167969 400.171875 710.933594 400.738281 C 710.695312 401.308594 710.519531 401.894531 710.398438 402.496094 C 710.277344 403.101562 710.21875 403.710938 710.21875 404.328125 C 710.21875 404.941406 710.277344 405.550781 710.398438 406.15625 C 710.519531 406.757812 710.695312 407.34375 710.933594 407.914062 C 711.167969 408.484375 711.457031 409.023438 711.796875 409.535156 C 712.140625 410.046875 712.527344 410.519531 712.964844 410.957031 C 713.398438 411.390625 713.871094 411.78125 714.382812 412.121094 C 714.894531 412.464844 715.4375 412.753906 716.003906 412.988281 C 716.574219 413.222656 717.160156 413.402344 717.765625 413.519531 C 718.367188 413.640625 718.976562 413.703125 719.59375 413.703125 C 720.207031 413.703125 720.816406 413.640625 721.421875 413.519531 C 722.027344 413.402344 722.613281 413.222656 723.179688 412.988281 C 723.75 412.753906 724.289062 412.464844 724.800781 412.121094 C 725.3125 411.78125 725.785156 411.390625 726.222656 410.957031 C 726.65625 410.519531 727.046875 410.046875 727.386719 409.535156 C 727.730469 409.023438 728.019531 408.484375 728.253906 407.914062 C 728.488281 407.34375 728.667969 406.757812 728.789062 406.15625 C 728.90625 405.550781 728.96875 404.941406 728.96875 404.328125 C 728.96875 403.710938 728.90625 403.101562 728.789062 402.496094 C 728.667969 401.894531 728.488281 401.308594 728.253906 400.738281 C 728.019531 400.171875 727.730469 399.628906 727.386719 399.117188 C 727.046875 398.605469 726.65625 398.132812 726.222656 397.699219 C 725.785156 397.261719 725.3125 396.875 724.800781 396.53125 C 724.289062 396.191406 723.75 395.902344 723.179688 395.664062 C 722.613281 395.429688 722.027344 395.25 721.421875 395.132812 C 720.816406 395.011719 720.207031 394.953125 719.59375 394.953125 Z M 719.59375 409.953125 C 719.222656 409.953125 718.859375 409.914062 718.496094 409.84375 C 718.132812 409.769531 717.78125 409.664062 717.441406 409.523438 C 717.097656 409.382812 716.773438 409.207031 716.46875 409.003906 C 716.160156 408.796875 715.875 408.566406 715.617188 408.304688 C 715.355469 408.042969 715.121094 407.757812 714.914062 407.453125 C 714.710938 407.144531 714.539062 406.820312 714.394531 406.480469 C 714.253906 406.136719 714.148438 405.785156 714.074219 405.425781 C 714.003906 405.0625 713.96875 404.695312 713.96875 404.328125 C 713.96875 403.957031 714.003906 403.589844 714.074219 403.230469 C 714.148438 402.867188 714.253906 402.515625 714.394531 402.175781 C 714.539062 401.832031 714.710938 401.507812 714.914062 401.203125 C 715.121094 400.894531 715.355469 400.609375 715.617188 400.347656 C 715.875 400.085938 716.160156 399.855469 716.46875 399.648438 C 716.773438 399.445312 717.097656 399.269531 717.441406 399.128906 C 717.78125 398.988281 718.132812 398.882812 718.496094 398.808594 C 718.859375 398.738281 719.222656 398.703125 719.59375 398.703125 C 719.960938 398.703125 720.328125 398.738281 720.691406 398.808594 C 721.050781 398.882812 721.40625 398.988281 721.746094 399.128906 C 722.085938 399.269531 722.410156 399.445312 722.71875 399.648438 C 723.023438 399.855469 723.308594 400.085938 723.570312 400.347656 C 723.832031 400.609375 724.066406 400.894531 724.269531 401.203125 C 724.476562 401.507812 724.648438 401.832031 724.789062 402.175781 C 724.929688 402.515625 725.039062 402.867188 725.109375 403.230469 C 725.183594 403.589844 725.21875 403.957031 725.21875 404.328125 C 725.21875 404.695312 725.183594 405.0625 725.109375 405.425781 C 725.039062 405.785156 724.929688 406.136719 724.789062 406.480469 C 724.648438 406.820312 724.476562 407.144531 724.269531 407.453125 C 724.066406 407.757812 723.832031 408.042969 723.570312 408.304688 C 723.308594 408.566406 723.023438 408.796875 722.71875 409.003906 C 722.410156 409.207031 722.085938 409.382812 721.746094 409.523438 C 721.40625 409.664062 721.050781 409.769531 720.691406 409.84375 C 720.328125 409.914062 719.960938 409.953125 719.59375 409.953125 Z M 719.59375 409.953125 " fill-opacity="1" fill-rule="nonzero"/></svg>