 <svg  version="1.0" xmlns="http://www.w3.org/2000/svg"  width="288.000000pt" height="267.000000pt" viewBox="0 0 288.000000 267.000000"  preserveAspectRatio="xMidYMid meet">  <g transform="translate(0.000000,267.000000) scale(0.100000,-0.100000)" fill="#004225" stroke="none"> <path d="M1255 2499 c-234 -44 -418 -127 -587 -266 -144 -119 -241 -248 -337 -448 -49 -101 -101 -333 -101 -448 0 -68 2 -75 31 -104 51 -53 99 -52 157 0 17 16 22 31 22 71 0 59 26 215 45 266 7 19 20 60 30 90 53 164 206 354 376 468 118 80 206 115 395 156 205 45 487 -13 692 -144 60 -38 64 -59 12 -73 -99 -25 -108 -164 -13 -203 23 -10 80 -14 195 -14 257 0 268 11 268 268 0 183 -9 221 -59 246 -75 39 -147 3 -165 -82 -4 -17 -11 -32 -15 -32 -3 0 -30 18 -58 39 -29 21 -85 55 -125 76 -40 20 -80 40 -88 44 -58 32 -133 55 -265 81 -108 22 -316 26 -410 9z"/> <path d="M1636 1453 c-105 -104 -201 -200 -214 -215 -45 -53 -55 -50 -168 63 -101 100 -106 104 -148 104 -73 0 -118 -60 -101 -134 7 -32 262 -293 311 -319 17 -9 42 -12 67 -9 36 5 57 22 181 144 78 76 201 198 275 270 l135 131 0 51 c0 71 -29 101 -97 101 l-49 0 -192 -187z"/> <path d="M2505 1401 c-44 -19 -56 -46 -66 -148 -10 -114 -22 -184 -39 -233 -65 -180 -142 -310 -251 -420 -103 -104 -184 -156 -364 -234 -118 -51 -290 -73 -444 -56 -97 11 -201 35 -248 58 -151 74 -193 97 -223 121 -37 31 -36 32 24 46 16 3 42 20 58 37 39 42 38 86 -3 133 l-31 35 -202 0 c-275 -1 -266 8 -266 -262 l0 -184 29 -34 c26 -31 34 -35 79 -35 60 0 87 21 102 76 6 21 15 41 20 44 5 3 28 -8 52 -24 165 -111 225 -139 418 -194 175 -50 415 -50 590 0 249 71 385 149 551 313 92 91 140 152 196 245 18 31 79 156 92 190 31 81 81 331 81 403 0 38 -19 79 -48 105 -23 21 -79 30 -107 18z"/> </g> </svg> 