<?xml version="1.0" standalone="no"?>
<!DOCTYPE svg PUBLIC "-//W3C//DTD SVG 20010904//EN"
 "http://www.w3.org/TR/2001/REC-SVG-20010904/DTD/svg10.dtd">
<svg version="1.0" xmlns="http://www.w3.org/2000/svg"
 width="149.000000pt" height="115.000000pt" viewBox="0 0 149.000000 115.000000"
 preserveAspectRatio="xMidYMid meet">

<g transform="translate(0.000000,115.000000) scale(0.100000,-0.100000)"
fill="#000000" stroke="none">
<path d="M634 1076 c-173 -54 -317 -211 -353 -384 -71 -341 219 -652 564 -603
251 35 435 246 435 498 0 134 -42 241 -135 341 -108 117 -213 162 -372 161
-54 0 -116 -6 -139 -13z m109 -162 c18 -9 38 -24 45 -34 9 -15 5 -22 -32 -45
-89 -56 -117 -174 -61 -254 l27 -40 -38 -33 c-41 -36 -73 -98 -74 -140 0 -27
-2 -28 -52 -28 -29 0 -58 4 -64 8 -33 21 -45 103 -23 159 13 34 64 90 102 109
l27 15 -35 34 c-19 19 -38 50 -43 68 -33 126 103 237 221 181z m174 -95 c41
-15 70 -46 89 -94 21 -56 7 -110 -42 -158 l-37 -35 34 -17 c19 -10 42 -25 53
-34 56 -49 76 -174 34 -218 -21 -22 -27 -23 -188 -23 -184 0 -203 5 -215 61
-13 57 4 117 42 160 20 22 49 47 65 55 l29 15 -35 39 c-41 46 -51 75 -43 133
5 33 15 51 51 84 39 38 51 43 90 43 24 0 57 -5 73 -11z"/>
</g>
</svg>
