<svg xmlns="http://www.w3.org/2000/svg" width="910" height="309" viewBox="0 0 910 309">
<g>
<path d="M 270.97 246.20 C265.45,240.68 264.88,236.40 268.88,230.26 C270.58,227.64 295.80,201.72 324.93,172.66 C374.22,123.49 378.17,119.79 381.89,119.29 C384.08,118.99 387.14,119.06 388.69,119.44 C390.57,119.90 401.81,130.42 422.52,151.07 C451.49,179.95 453.68,181.91 455.52,180.61 C458.71,178.37 551.00,85.82 551.00,84.87 C551.00,84.39 539.51,84.00 525.47,84.00 C497.65,84.00 494.70,83.52 491.40,78.49 C488.59,74.20 489.96,60.00 493.18,60.00 C493.71,60.00 494.82,59.33 495.64,58.50 C497.80,56.35 588.31,56.24 592.44,58.39 C593.46,58.91 594.29,59.29 594.96,59.84 C596.04,60.73 596.73,62.09 597.17,65.30 C596.79,67.98 596.50,88.59 596.50,113.40 C596.50,139.75 596.83,161.15 597.24,161.35 L 595.75 162.70 C590.45,167.53 583.79,168.39 578.19,164.97 C572.45,161.47 572.00,158.99 572.00,130.53 C572.00,116.49 571.66,105.00 571.25,105.00 C570.83,105.00 546.42,129.12 517.00,158.61 C477.51,198.17 462.36,212.73 459.15,214.20 C457.22,215.08 455.75,215.77 454.22,215.92 C449.01,216.42 443.18,210.55 416.48,183.93 C399.42,166.92 384.99,153.00 384.42,153.00 C383.85,153.00 362.26,174.18 336.44,200.07 C310.62,225.96 288.28,247.78 286.80,248.57 C285.31,249.36 282.00,250.00 279.43,250.00 C275.36,250.00 274.28,249.51 270.97,246.20 ZM 597.98 124.83 L 598.00 160.65 L 597.27 161.32 C597.61,160.53 597.89,145.16 597.98,124.83 ZM 597.59 70.09 C597.88,75.52 597.94,83.89 597.96,97.09 C597.89,85.33 597.76,75.64 597.59,70.09 Z" fill="rgba(0,66,37,1)"/>
<path d="M 596.50 113.40 C596.50,86.78 596.84,65.00 597.25,65.00 C597.66,65.00 598.00,86.57 598.00,112.94 C598.00,139.31 597.66,161.09 597.25,161.35 C596.84,161.60 596.50,140.03 596.50,113.40 Z" fill="rgba(1,61,34,1)"/>
</g>
</svg>