<svg xmlns="http://www.w3.org/2000/svg" width="646" height="417" viewBox="0 0 646 417">
<g>
<path d="M 375.72 292.97 C362.67,289.70 356.03,281.53 355.20,267.73 C354.24,251.63 361.79,242.29 379.73,237.41 C383.18,236.48 391.83,235.62 401.25,235.28 L 417.00 234.72 L 417.00 227.57 C417.00,218.08 414.29,212.50 408.00,209.00 C404.10,206.83 402.30,206.51 394.50,206.56 C386.99,206.61 384.68,207.03 380.57,209.10 C375.71,211.54 375.06,212.48 373.57,219.25 C372.98,221.93 372.78,222.00 365.98,222.00 L 359.00 222.00 L 359.00 213.15 C359.00,203.15 359.16,202.88 367.50,198.75 C377.83,193.64 382.74,192.57 396.00,192.53 C405.97,192.51 409.56,192.89 413.74,194.44 C421.84,197.45 428.01,202.67 431.48,209.45 L 434.50 215.35 L 435.00 247.41 L 435.50 279.47 L 439.50 280.17 C441.70,280.55 446.31,280.40 449.75,279.83 L 456.00 278.79 L 456.00 208.04 L 453.75 207.53 C452.51,207.25 449.25,206.67 446.50,206.24 L 441.50 205.45 L 441.50 193.50 L 472.48 193.50 L 473.49 200.47 L 474.50 207.44 L 477.68 203.42 C479.42,201.21 483.25,198.07 486.18,196.45 C491.22,193.66 492.22,193.49 505.22,193.16 L 518.94 192.81 L 519.50 168.50 L 528.22 168.21 L 536.94 167.92 L 537.22 180.21 L 537.50 192.50 L 556.50 193.50 L 556.50 206.50 L 547.53 206.79 C541.91,206.98 538.28,207.53 537.80,208.29 C536.61,210.17 536.85,266.91 538.07,271.30 C539.69,277.16 543.80,279.27 552.10,278.51 L 558.71 277.91 L 559.85 283.61 C561.24,290.55 560.65,291.48 553.89,292.93 C538.56,296.22 526.04,291.53 521.39,280.77 C519.73,276.94 519.50,272.88 519.20,241.75 L 518.86 207.00 L 511.93 207.00 C508.12,207.00 505.00,207.39 505.00,207.86 C505.00,208.33 501.27,208.95 496.70,209.24 C484.23,210.01 475.94,215.26 474.50,223.28 C474.18,225.05 474.05,238.18 474.21,252.46 L 474.50 278.43 L 477.50 279.15 C479.15,279.55 482.52,280.24 485.00,280.69 L 489.50 281.51 L 489.50 292.50 L 454.56 293.26 C428.91,293.82 419.44,293.72 418.93,292.89 C418.55,292.26 417.93,289.11 417.57,285.88 C417.20,282.64 416.65,280.00 416.35,280.00 C416.05,280.00 413.77,281.80 411.27,283.99 C403.80,290.57 397.03,293.33 387.61,293.64 C383.15,293.79 377.80,293.49 375.72,292.97 ZM 197.85 215.14 C204.58,209.66 202.96,208.42 194.54,206.54 C191.03,205.76 189.06,205.26 187.21,205.53 C185.86,205.72 184.58,206.31 182.80,207.49 L 186.50 204.72 L 187.50 193.50 L 195.49 193.20 C202.26,192.95 203.87,192.55 205.99,190.56 C208.37,188.34 238.57,165.66 265.30,145.81 C237.13,166.86 205.00,191.29 205.00,191.97 C205.00,192.58 207.85,193.00 212.00,193.00 L 219.00 193.00 L 219.00 199.14 L 221.82 197.13 C223.37,196.02 243.06,181.37 265.57,164.58 C270.96,160.56 276.14,156.71 280.93,153.19 C254.94,172.37 219.52,199.15 219.60,199.97 C219.65,200.53 219.77,202.22 219.85,203.70 L 220.00 206.41 L 223.75 202.76 C225.81,200.75 230.20,197.85 233.50,196.31 C238.81,193.83 240.65,193.51 249.50,193.51 C257.93,193.50 260.23,193.86 264.19,195.81 C268.56,197.96 274.07,203.18 276.59,207.56 C277.60,209.30 278.10,209.03 282.82,204.18 C285.76,201.16 290.43,197.75 293.73,196.20 C298.67,193.89 300.79,193.50 308.50,193.52 C319.51,193.53 325.92,196.02 332.03,202.64 C340.55,211.89 341.98,219.23 341.99,253.62 L 342.00 278.75 L 356.50 281.50 L 356.80 287.27 L 357.10 293.04 L 332.80 292.77 L 308.50 292.50 L 308.50 281.53 L 315.41 280.27 C319.20,279.59 322.49,278.84 322.72,278.62 C323.64,277.69 322.87,223.23 321.88,219.50 C319.42,210.24 311.91,205.35 301.49,206.21 C293.85,206.84 288.47,210.72 284.51,218.46 L 281.50 224.35 L 281.18 251.17 L 280.85 277.99 L 283.18 278.87 C284.45,279.36 287.86,280.07 290.75,280.47 L 296.00 281.19 L 296.00 293.00 L 248.00 293.00 L 248.00 281.19 L 253.25 280.47 C256.14,280.07 259.55,279.35 260.83,278.87 L 263.16 277.99 L 262.77 250.24 C262.49,230.50 261.99,221.49 261.05,219.00 C257.51,209.64 250.65,205.41 240.28,206.19 C232.76,206.76 227.46,209.38 223.88,214.32 L 221.00 218.30 L 221.00 278.84 L 223.75 279.37 C225.26,279.66 228.41,280.18 230.75,280.53 L 235.00 281.18 L 235.00 293.00 L 186.90 293.00 L 187.20 287.25 L 187.50 281.50 L 202.00 278.75 L 202.00 245.79 C202.00,225.73 201.63,212.96 201.06,213.17 C200.58,213.34 199.41,214.07 197.85,215.14 ZM 403.29 275.72 C406.33,274.33 410.65,271.30 412.91,268.98 L 417.00 264.76 L 417.00 246.81 L 402.75 247.16 C390.22,247.46 387.92,247.78 383.72,249.85 C377.41,252.96 373.83,257.76 373.24,263.88 C372.25,274.19 378.68,279.34 391.64,278.60 C395.44,278.38 399.88,277.29 403.29,275.72 ZM 179.43 234.30 C178.62,232.76 178.03,231.24 178.06,230.69 C178.08,230.20 181.11,227.62 185.39,224.38 C181.33,227.56 178.08,230.28 178.06,230.69 C178.03,231.24 178.62,232.76 179.43,234.30 ZM 174.13 213.97 C170.32,216.82 166.99,219.00 166.42,219.00 C166.40,219.00 166.38,219.00 166.36,219.00 L 166.37 219.00 C166.88,219.00 170.13,216.87 174.13,213.97 ZM 316.89 141.63 C311.87,137.04 308.30,134.01 307.84,134.02 C307.83,134.02 307.81,134.02 307.78,134.03 C307.81,134.02 307.83,134.02 307.84,134.02 C308.30,134.01 311.87,137.04 316.89,141.63 Z" fill="rgba(1,66,37,1)"/>
<path d="M 219.00 193.00 L 212.00 193.00 C207.85,193.00 205.00,192.58 205.00,191.97 C205.00,190.78 303.25,116.99 306.75,115.54 C308.86,114.67 310.73,116.25 327.79,133.29 C338.09,143.58 346.83,152.00 347.21,152.00 C348.04,152.00 453.04,68.08 457.77,63.64 C461.78,59.87 461.54,59.74 447.61,58.11 C442.18,57.47 437.32,56.70 436.83,56.40 C435.85,55.79 436.77,49.01 438.02,47.65 C438.44,47.19 446.83,47.75 456.65,48.91 C478.86,51.52 482.50,51.79 482.98,53.17 C483.13,53.58 482.99,54.10 482.98,54.81 C482.96,58.80 478.12,98.21 477.59,98.74 C476.96,99.37 469.11,97.98 468.59,97.15 C468.36,96.78 468.79,91.31 469.55,84.99 C470.30,78.67 470.93,73.16 470.96,72.75 C471.12,69.96 466.86,73.26 381.14,142.25 C362.80,157.02 347.19,168.97 346.46,168.80 C345.73,168.64 337.04,160.74 327.16,151.25 C317.27,141.76 308.58,134.01 307.84,134.02 C307.10,134.02 288.08,147.78 265.57,164.58 C243.06,181.37 223.37,196.02 221.82,197.13 L 219.00 199.14 L 219.00 193.00 ZM 184.78 252.81 C184.58,250.14 184.13,247.41 183.43,244.64 C180.54,233.39 173.58,224.36 162.05,217.01 C164.17,218.18 165.94,219.00 166.42,219.00 C167.06,219.00 171.17,216.26 175.55,212.90 C182.09,207.89 184.53,205.91 187.21,205.53 C189.06,205.26 191.03,205.76 194.54,206.54 C205.37,208.95 204.94,210.32 190.00,221.00 C183.46,225.68 178.09,230.04 178.06,230.69 C178.03,231.35 178.87,233.37 179.93,235.19 C180.99,237.01 182.56,241.26 183.43,244.64 C184.13,247.41 184.58,250.14 184.78,252.81 ZM 155.91 213.48 C155.20,213.12 154.48,212.75 153.75,212.39 C152.70,211.88 151.84,211.45 151.13,211.06 C152.18,211.50 153.98,212.42 155.91,213.48 Z" fill="rgba(204,204,204,1)"/>
<path d="M 138.38 281.41 C140.14,280.73 140.22,279.82 139.64,268.09 C139.30,261.17 138.72,249.36 138.37,241.85 C137.76,229.10 137.57,228.13 135.54,227.20 C132.02,225.60 118.96,222.11 117.43,222.32 L 117.50 220.68 L 114.50 219.43 C112.85,218.75 109.85,217.87 107.83,217.50 L 104.17 216.81 L 104.55 218.47 C103.26,217.79 98.72,215.56 93.51,213.04 C84.57,208.72 81.30,206.50 75.96,201.12 C72.35,197.48 68.29,192.25 66.95,189.50 C64.76,185.04 64.50,183.20 64.50,172.50 C64.50,161.20 64.67,160.18 67.39,155.00 C72.69,144.91 83.96,135.71 97.39,130.50 L 101.27 128.99 L 100.55 109.92 C99.89,92.57 99.98,90.68 101.57,88.93 C103.75,86.52 107.19,86.45 109.30,88.78 C110.57,90.19 111.08,94.23 111.74,108.23 C112.20,117.95 112.78,126.10 113.04,126.34 C113.29,126.58 117.95,126.54 123.39,126.24 L 133.27 125.71 L 132.57 108.42 C131.76,88.63 132.13,87.00 137.50,87.00 C139.86,87.00 141.25,87.60 141.96,88.93 C142.53,89.99 143.39,99.02 143.87,109.00 C144.34,118.97 145.13,127.48 145.62,127.89 C146.10,128.31 148.52,129.25 151.00,129.98 C157.81,132.00 170.84,138.64 176.77,143.12 L 182.05 147.10 L 181.78 162.80 L 181.50 178.50 L 173.59 178.79 C169.25,178.96 165.29,178.69 164.80,178.20 C164.30,177.70 163.02,172.43 161.95,166.48 C160.88,160.53 159.29,154.88 158.43,153.92 C156.60,151.90 147.07,147.60 146.25,148.42 C145.94,148.72 146.22,161.24 146.85,176.24 C147.49,191.23 148.01,204.87 148.01,206.54 C148.00,209.25 148.62,209.89 153.75,212.39 C170.32,220.49 179.91,230.91 183.43,244.64 C188.68,265.15 179.63,283.65 159.47,293.61 L 152.15 297.23 L 153.30 329.76 L 150.70 331.46 C147.78,333.37 144.49,332.81 143.13,330.18 C142.65,329.26 141.95,322.21 141.57,314.52 C141.18,306.83 140.78,300.46 140.68,300.36 C140.58,300.26 136.00,300.48 130.50,300.84 L 120.50 301.50 L 120.60 305.60 C120.33,302.45 119.90,300.06 119.50,299.77 C118.95,299.36 115.82,299.02 112.55,299.02 C107.92,299.00 106.87,299.27 107.80,300.20 C107.88,300.28 107.97,300.41 108.05,300.57 L 99.80 298.38 C86.58,294.88 72.44,287.37 65.72,280.27 L 62.95 277.33 L 63.22 261.92 L 63.50 246.50 L 71.41 246.21 C75.75,246.04 79.69,246.29 80.15,246.75 C80.61,247.21 81.91,252.68 83.03,258.91 C84.63,267.82 85.54,270.63 87.28,272.11 C90.20,274.57 100.64,279.56 104.75,280.45 C107.91,281.14 108.00,281.07 107.94,277.83 C107.80,269.29 105.89,231.13 105.16,221.10 C105.60,223.29 105.96,226.96 105.98,229.56 C106.00,234.14 106.26,234.71 108.75,235.66 C110.26,236.24 112.71,236.71 114.18,236.70 C116.83,236.70 116.86,236.63 117.18,228.69 L 117.23 227.38 C117.45,241.42 119.03,280.13 119.60,281.90 C119.96,283.01 121.74,283.17 128.27,282.71 C132.80,282.39 137.35,281.81 138.38,281.41 ZM 136.65 198.25 C135.79,188.71 134.45,153.25 134.77,148.71 L 135.04 144.93 L 124.77 145.21 L 114.50 145.50 L 114.82 168.87 C115.22,197.93 115.54,200.08 119.52,201.21 C130.14,204.24 132.76,204.88 134.88,204.93 C137.21,205.00 137.25,204.87 136.65,198.25 ZM 103.56 176.25 C102.54,146.80 102.40,146.49 94.17,154.75 C85.27,163.70 84.42,178.27 92.30,186.88 C94.25,189.01 102.73,195.00 103.80,195.00 C104.03,195.00 103.92,186.56 103.56,176.25 ZM 155.20 272.25 C159.63,267.52 161.30,263.07 161.28,256.02 C161.27,252.43 160.58,247.86 159.73,245.86 C157.99,241.73 151.18,233.77 150.01,234.49 C149.59,234.75 149.41,236.89 149.60,239.23 C149.80,241.58 150.25,250.59 150.59,259.25 C150.93,267.91 151.53,275.00 151.92,275.00 C152.31,275.00 153.78,273.76 155.20,272.25 ZM 102.75 157.43 C103.13,162.21 103.64,163.97 104.54,163.62 C105.23,163.36 107.61,162.60 109.82,161.93 L 113.86 160.73 L 114.18 152.73 C114.55,143.57 114.11,143.06 107.67,144.96 C102.74,146.42 99.39,149.01 101.08,150.05 C101.70,150.43 102.45,153.75 102.75,157.43 ZM 111.87 331.35 C110.97,330.26 110.16,324.71 109.50,315.19 L 109.34 312.91 C109.70,315.59 110.32,316.92 111.11,316.43 C111.59,316.14 112.78,316.35 113.74,316.92 C114.71,317.48 116.77,317.95 118.33,317.97 L 120.91 318.00 C121.13,328.02 120.88,329.98 119.53,331.32 C117.39,333.46 113.64,333.48 111.87,331.35 ZM 109.03 308.40 L 108.63 302.55 C108.86,303.80 109.01,305.37 109.01,306.95 C109.01,307.45 109.02,307.93 109.03,308.40 Z" fill="rgba(255,189,4,1)"/>
<path d="M 113.74 316.92 C112.78,316.35 111.59,316.14 111.11,316.43 C109.86,317.20 109.03,313.43 109.01,306.95 C109.01,303.90 108.46,300.86 107.80,300.20 C106.87,299.27 107.92,299.00 112.55,299.02 C115.82,299.02 118.95,299.36 119.50,299.77 C120.05,300.17 120.65,304.44 120.83,309.25 L 121.15 318.00 L 118.33 317.97 C116.77,317.95 114.71,317.48 113.74,316.92 ZM 108.75 235.66 C106.26,234.71 106.00,234.14 105.98,229.56 C105.96,226.78 105.55,222.77 105.06,220.65 L 104.17 216.81 L 107.83 217.50 C109.85,217.87 112.85,218.75 114.50,219.43 L 117.50 220.68 L 117.18 228.69 C116.86,236.63 116.83,236.70 114.18,236.70 C112.71,236.71 110.26,236.24 108.75,235.66 ZM 102.75 157.43 C102.45,153.75 101.70,150.43 101.08,150.05 C99.39,149.01 102.74,146.42 107.67,144.96 C114.11,143.06 114.55,143.57 114.18,152.73 L 113.86 160.73 L 109.82 161.93 C107.61,162.60 105.23,163.36 104.54,163.62 C103.64,163.97 103.13,162.21 102.75,157.43 Z" fill="rgba(249,186,5,1)"/>
</g>
</svg>